<svg width="40" height="30" viewBox="0 0 40 30" fill="none" xmlns="http://www.w3.org/2000/svg">
<g clip-path="url(#clip0_603_226)">
<path fill-rule="evenodd" clip-rule="evenodd" d="M0 0H40V30H0V0Z" fill="white"/>
<path fill-rule="evenodd" clip-rule="evenodd" d="M1.76046 27.6566H1.64612C1.64612 27.6138 1.61748 27.5493 1.61748 27.5277C1.61748 27.5064 1.61748 27.4636 1.53157 27.4636H1.35975V27.6566H1.27383V27.2058H1.53157C1.64612 27.2058 1.73182 27.2275 1.73182 27.3131C1.73182 27.3775 1.70318 27.3991 1.67475 27.4203C1.70339 27.4419 1.73182 27.4634 1.73182 27.5064V27.5921C1.73182 27.6138 1.73182 27.6138 1.76046 27.6138V27.6566ZM1.64612 27.3347C1.64612 27.2703 1.58884 27.2703 1.56021 27.2703H1.35975V27.3991H1.53157C1.58884 27.3991 1.64612 27.3775 1.64612 27.3347V27.3347ZM2.13274 27.4205C2.13274 27.163 1.84658 26.9481 1.47429 26.9481C1.13085 26.9481 0.844482 27.163 0.844482 27.4205C0.844482 27.6995 1.13085 27.9145 1.47429 27.9145C1.84637 27.9143 2.13274 27.6995 2.13274 27.4205ZM2.04683 27.4205C2.04683 27.6567 1.7893 27.8284 1.47429 27.8284C1.15928 27.8284 0.930394 27.6566 0.930394 27.4205C0.930394 27.2058 1.15949 27.0125 1.47429 27.0125C1.7891 27.0125 2.04683 27.2058 2.04683 27.4205ZM37.315 18.7467C37.315 19.3908 36.7711 19.6911 35.7977 19.6911H33.9373V19.0469H35.7977C35.9695 19.0469 36.1127 19.0256 36.1702 18.9828C36.2272 18.9396 36.2845 18.8752 36.2845 18.7895C36.2845 18.7034 36.2274 18.6176 36.1702 18.5748C36.1127 18.5317 35.9984 18.5104 35.8265 18.5104C34.9394 18.4888 33.8228 18.5317 33.8228 17.5872C33.8228 17.1576 34.1948 16.6852 35.1967 16.6852H37.1146V17.3294H35.3397C35.1683 17.3294 35.0535 17.3294 34.9676 17.3722C34.8817 17.4367 34.8246 17.5011 34.8246 17.6085C34.8246 17.7159 34.9106 17.7803 35.0249 17.8234C35.1396 17.8447 35.2542 17.8662 35.3974 17.8662H35.9124C36.4563 17.8662 36.8 17.952 37.0291 18.1025C37.2005 18.2527 37.315 18.4461 37.315 18.7467V18.7467ZM33.2786 18.1025C33.0495 17.952 32.7059 17.8662 32.162 17.8662H31.6469C31.504 17.8662 31.3892 17.8446 31.2749 17.8234C31.1601 17.7803 31.0746 17.7159 31.0746 17.6085C31.0746 17.5011 31.103 17.4367 31.2176 17.3722C31.3035 17.3294 31.4178 17.3294 31.5897 17.3294H33.3646V16.6852H31.4467C30.416 16.6852 30.0723 17.1576 30.0723 17.5872C30.0723 18.5316 31.189 18.4888 32.0765 18.5104C32.2479 18.5104 32.3627 18.5317 32.4197 18.5748C32.4768 18.6176 32.5345 18.7034 32.5345 18.7895C32.5345 18.8752 32.477 18.9396 32.4197 18.9828C32.3338 19.0256 32.2195 19.0469 32.0477 19.0469H30.1869V19.6911H32.0477C33.0207 19.6911 33.5648 19.3907 33.5648 18.7467C33.5648 18.4461 33.4505 18.2527 33.2786 18.1025V18.1025ZM29.6143 19.0687H27.3532V18.4674H29.5573V17.8665H27.3532V17.3081H29.6143V16.6855H26.4084V19.6912H29.6143V19.0687ZM25.3777 16.8359C25.0627 16.707 24.6906 16.6854 24.204 16.6854H21.9999V19.6911H22.973V18.5962H24.0037C24.3469 18.5962 24.5476 18.6178 24.6908 18.725C24.8626 18.8752 24.8626 19.1329 24.8626 19.3262V19.6911H25.807V19.1113C25.807 18.8323 25.7786 18.7034 25.664 18.5532C25.5781 18.4671 25.4067 18.3599 25.1776 18.2955C25.4349 18.2313 25.8647 17.9736 25.8647 17.5011C25.8645 17.1578 25.6927 16.9645 25.3777 16.8359V16.8359ZM19.9387 16.6854H16.8755L15.6445 17.6731L14.4708 16.6854H10.6063V19.6911H14.4138L15.6447 18.7034L16.8185 19.6911H18.6793V18.6822H19.8816C20.7117 18.6822 21.5422 18.5104 21.5422 17.6731C21.5419 16.8572 20.683 16.6854 19.9387 16.6854ZM24.6047 17.9308C24.4617 17.9736 24.3185 17.9736 24.1467 17.9736L22.973 17.9952V17.3079H24.1467C24.3185 17.3079 24.4903 17.3079 24.6047 17.3724C24.7194 17.4155 24.8049 17.5012 24.8049 17.6301C24.8049 17.759 24.7194 17.8664 24.6047 17.9308V17.9308ZM19.9387 18.081H18.679V17.3079H19.9387C20.2823 17.3079 20.5112 17.4155 20.5112 17.6731C20.5112 17.9308 20.2821 18.081 19.9387 18.081ZM16.2457 18.1882L17.7342 17.0076V19.4336L16.2457 18.1882ZM13.9269 19.0687H11.5509V18.4674H13.6692V17.8665H11.5509V17.3081H13.9556L15.0147 18.1884L13.9269 19.0687V19.0687ZM34.6526 14.5169H33.2786L31.4751 12.2625V14.5169H29.5288L29.1563 13.8512H27.1526L26.7805 14.5169H25.6638C25.2058 14.5169 24.6047 14.431 24.2614 14.1733C23.9464 13.9157 23.7746 13.5722 23.7746 13.0354C23.7746 12.5845 23.8605 12.1766 24.2897 11.8546C24.5758 11.6183 25.0913 11.5111 25.7495 11.5111H26.6655V12.1553H25.7495C25.4063 12.1553 25.2056 12.1982 25.0054 12.3271C24.8336 12.456 24.7477 12.6921 24.7477 13.0141C24.7477 13.3361 24.8336 13.5723 25.0054 13.7227C25.1484 13.8299 25.4063 13.8729 25.6636 13.8729H26.0932L27.4672 11.5112H28.8986L30.5017 14.3452V11.5111H31.9904L33.6794 13.5937V11.5111H34.6524V14.5169H34.6526V14.5169ZM23.288 11.5111H22.3149V14.5169H23.288V11.5111V11.5111ZM21.2554 11.6399C20.9404 11.5111 20.5971 11.5111 20.1105 11.5111H17.9061V14.5169H18.8507V13.4218H19.8812C20.2248 13.4218 20.4539 13.4433 20.5969 13.5507C20.7687 13.7011 20.7399 13.9588 20.7399 14.1305V14.5169H21.7129V13.9157C21.7129 13.6581 21.6845 13.5292 21.5415 13.3789C21.4556 13.293 21.2838 13.1856 21.0835 13.1213C21.3409 13.0354 21.7706 12.7993 21.7706 12.3269C21.7708 11.9834 21.5702 11.7901 21.2554 11.6399ZM17.219 13.8944H14.9861V13.2931H17.1903V12.6706H14.9861V12.1338H17.219V11.5112H14.0128V14.5171H17.219V13.8944ZM13.2971 11.5111H11.7227L10.549 13.5507L9.28936 11.5111H7.74357V14.3451L6.11187 11.5111H4.68063L2.96302 14.5169H3.99354L4.36562 13.8512H6.36939L6.74147 14.5169H8.68818V12.1553L10.0908 14.5169H10.9208L12.3237 12.1553V14.5169H13.2969V11.5111H13.2971ZM28.8131 13.2072L28.1544 12.0264L27.4962 13.2072H28.8131ZM20.5112 12.735C20.3682 12.7994 20.225 12.7994 20.0246 12.7994H18.8507V12.1339H20.0244C20.1962 12.1339 20.3962 12.1339 20.511 12.1769C20.6253 12.2413 20.6828 12.3272 20.6828 12.456C20.6828 12.5847 20.6256 12.6919 20.5112 12.735V12.735ZM4.70906 13.2072L5.36751 12.0264L6.02595 13.2072H4.70906V13.2072ZM37.0862 2.08569H2.93417V12.9067L4.10788 10.91H6.59828L6.94193 11.4038V10.91H9.86189L10.5203 11.9834L11.1502 10.91H20.4539C20.8831 10.91 21.2552 10.9744 21.5417 11.1461V10.91H24.0894V11.1461C24.5186 10.9743 25.0625 10.91 25.6925 10.91H29.3852L29.7289 11.4038V10.91H32.4484L32.8493 11.4038V10.91H35.5113V15.1181H32.8207L32.3056 14.4741V15.1181H28.9561L28.584 14.4311H27.7535L27.3815 15.1181H25.6354C24.9483 15.1181 24.4329 14.9893 24.0896 14.8605V15.1181H19.9387V14.1519C19.9387 14.0231 19.91 14.0016 19.7955 14.0016H19.6525V15.118H11.6368V14.5812L11.3506 15.118H9.66164L9.37547 14.6027V15.118H6.1405L5.79706 14.431H4.96679L4.59472 15.118H2.93417V27.8069H37.0862V20.099C36.7141 20.2278 36.1986 20.2923 35.6833 20.2923H33.1927V20.0345C32.9066 20.2065 32.3911 20.2923 31.9047 20.2923H24.0608V19.3262C24.0608 19.1974 24.0323 19.1974 23.889 19.1974H23.746V20.2923H21.1695V19.1544C20.7403 19.3046 20.2535 19.3046 19.8241 19.3046H19.5378V20.2923H16.3889L15.6447 19.6481L14.8147 20.2923H9.74734V16.0843H14.9002L15.6445 16.7282L16.4462 16.0843H19.91C20.3105 16.0843 20.9692 16.1271 21.2554 16.3417V16.0843H24.3469C24.6619 16.0843 25.2633 16.1271 25.6638 16.3417V16.0843H30.33V16.3419C30.5878 16.1701 31.0746 16.0845 31.5038 16.0845H34.1087V16.3419C34.3953 16.1917 34.7958 16.0845 35.3113 16.0845H37.0862V2.08569V2.08569Z" fill="#9E9E9E"/>
</g>
<defs>
<clipPath id="clip0_603_226">
<rect width="40" height="30" fill="white"/>
</clipPath>
</defs>
</svg>
