<svg width="50" height="30" viewBox="0 0 50 30" fill="none" xmlns="http://www.w3.org/2000/svg">
<path d="M47.251 27.6627L5.77087 27.6705L5.28418 25.3213L47.251 18.1049V27.6627Z" fill="#33A457"/>
<path d="M47.2232 17.0555L44.6354 4.09527C44.5737 3.78613 44.4469 3.49131 44.2624 3.22766C44.0779 2.964 43.8393 2.73667 43.5601 2.55867C43.2809 2.38067 42.9666 2.25547 42.6353 2.19025C42.3039 2.12502 41.962 2.12104 41.629 2.17853L4.58197 8.55217C3.90956 8.66787 3.31417 9.02669 2.92669 9.54973C2.53921 10.0728 2.39134 10.7172 2.51561 11.3414L5.10342 24.303L47.2232 17.0555V17.0555Z" fill="black" stroke="black" stroke-width="2.71157" stroke-miterlimit="3.864"/>
<path d="M7.03207 12.2617C8.92878 12.0281 10.1692 13.2143 10.5029 14.8496C10.8505 16.5637 10.1733 17.9861 8.11253 18.2946L5.98638 18.6663L4.7627 12.658L7.03207 12.2617ZM7.05432 17.4001L7.89143 17.253C9.18047 17.0271 9.35846 15.9442 9.18047 15.0716C8.97189 14.0481 8.32111 13.2659 7.10716 13.4789L6.28535 13.6234L7.05432 17.4001Z" fill="url(#paint0_linear_605_1065)"/>
<path d="M13.0128 17.4337L11.7321 17.6596L10.5112 11.6576L11.7919 11.4318L13.0128 17.4337Z" fill="url(#paint1_linear_605_1065)"/>
<path d="M16.3514 12.3211C15.5268 12.0681 15.0513 11.9971 14.6146 12.0733C14.1544 12.1533 13.8999 12.3972 13.9611 12.6954C14.1446 13.5963 16.7088 12.8838 17.1315 14.9645C17.3651 16.1107 16.6713 16.92 15.5254 17.1213C14.6285 17.2788 14.1279 17.0852 13.5536 16.8696L13.2922 15.584C14.1474 16.0229 14.6397 16.1442 15.2056 16.0448C15.6965 15.9597 15.919 15.7118 15.8467 15.362C15.6478 14.3837 13.1045 15.2007 12.6679 13.0581C12.4579 12.0268 13.0878 11.2098 14.2795 11.0007C14.8524 10.9 15.4017 10.949 16.115 11.1594L16.3514 12.3211V12.3211Z" fill="url(#paint2_linear_605_1065)"/>
<path d="M22.6647 15.2549C22.0361 15.8086 21.5272 16.0694 20.7652 16.2036C18.767 16.5534 17.4668 15.2252 17.1525 13.6854C16.8285 12.0939 17.649 10.4108 19.6166 10.0662C20.3327 9.94097 21.0085 10.0029 21.5856 10.2637L21.8554 11.5931C21.2157 11.3246 20.5927 11.1814 19.9587 11.2924C18.8657 11.4834 18.2497 12.3701 18.4652 13.4285C18.6821 14.4947 19.5985 15.122 20.6678 14.9348C21.3381 14.8174 21.7413 14.4934 22.3963 13.9526L22.6647 15.2549V15.2549Z" fill="url(#paint3_linear_605_1065)"/>
<path d="M32.322 14.0455L31.7644 14.1436L28.0627 8.61538L29.4575 8.37144L31.5071 11.535L32.1037 7.90806L33.4831 7.66541L32.322 14.0455V14.0455Z" fill="url(#paint4_linear_605_1065)"/>
<path d="M38.8048 12.9071L35.0128 13.5731L33.7988 7.60992L37.5366 6.95422L37.7591 8.04747L35.302 8.47729L35.5565 9.72801L37.901 9.31756L38.1234 10.4108L35.779 10.8226L36.071 12.2553L38.5809 11.8151L38.8048 12.9071V12.9071Z" fill="url(#paint5_linear_605_1065)"/>
<path d="M40.3677 6.45596C41.4231 6.2701 42.2157 6.98258 42.3965 7.87448C42.53 8.53017 42.3367 9.07228 41.8125 9.48918C42.402 9.70215 42.7107 10.4095 43.7898 12.0306L42.3798 12.2772C41.5691 11.0961 41.1325 9.98741 40.4386 10.1087L40.0687 10.1733L40.561 12.5947L39.283 12.8231L38.0691 6.85996L40.3677 6.45596ZM39.8851 9.21426L40.5623 9.09551C40.9169 9.03355 41.2284 8.79735 41.1241 8.29009C41.0337 7.8435 40.7389 7.66021 40.2564 7.7454L39.607 7.85899L39.8851 9.21426V9.21426Z" fill="url(#paint6_linear_605_1065)"/>
<path d="M25.1911 9.14974C27.2853 8.78188 28.8872 9.93193 29.2209 11.5737C29.5435 13.1626 28.552 14.8225 26.4023 15.1994C24.3276 15.5634 22.7243 14.3682 22.4003 12.7702C22.0679 11.1375 23.1345 9.50986 25.1911 9.14974V9.14974Z" fill="url(#paint7_linear_605_1065)"/>
<path d="M43.3254 6.51928L43.4102 6.50509L43.6703 6.80325L43.8844 6.7684L43.6021 6.45991C43.7134 6.43281 43.7954 6.36698 43.7676 6.22113C43.7328 6.04042 43.5924 6.00428 43.3741 6.03913L43.057 6.09205L43.2058 6.8794L43.3866 6.851L43.3254 6.51928V6.51928ZM43.299 6.38634L43.2628 6.19789L43.3894 6.17595C43.4575 6.16433 43.5535 6.1553 43.5688 6.23661C43.5854 6.32309 43.5396 6.34762 43.4589 6.36052L43.299 6.38634V6.38634ZM44.2348 6.30761C44.1472 5.84552 43.7231 5.63642 43.3059 5.70483C42.886 5.77324 42.5648 6.10367 42.6524 6.56575C42.74 7.02783 43.1641 7.23693 43.5827 7.16723C44.0012 7.10012 44.3224 6.76969 44.2348 6.30761V6.30761ZM44.0068 6.34504C44.0707 6.68192 43.8552 6.95039 43.5507 7.00073V6.99686C43.2378 7.05107 42.9416 6.8652 42.879 6.52832C42.8151 6.19144 43.0251 5.92555 43.3379 5.87521C43.6425 5.82487 43.9442 6.00815 44.0068 6.34504ZM30.7465 26.4172H30.1277L28.4966 24.3521V26.4172H27.761V23.1943H28.4354L30.0109 25.1652V23.1943H30.7465V26.4172ZM33.1577 26.4598C31.8854 26.4598 31.1664 25.6273 31.1664 24.8064C31.1664 24.0268 31.8492 23.1517 33.1577 23.1517C34.4662 23.1517 35.1434 24.0307 35.1434 24.8064C35.142 25.6325 34.405 26.4598 33.1577 26.4598ZM33.1577 23.8229C32.4958 23.8229 32.0578 24.2152 32.0578 24.8064C32.0578 25.3975 32.4958 25.7886 33.1577 25.7886C33.8154 25.7886 34.2521 25.3963 34.2521 24.8064C34.2521 24.2152 33.814 23.8229 33.1577 23.8229ZM36.9011 26.4598H36.5812L35.1545 23.1943H35.9541L36.7342 25.0323L37.474 23.1943H38.2652L36.9011 26.4598V26.4598ZM41.5177 23.1943V25.0232C41.5177 26.0907 40.8516 26.4598 40.0423 26.4598C39.1857 26.4598 38.5669 26.0248 38.5669 25.0284V23.1956H39.3025V25.0478C39.3025 25.5111 39.6099 25.7899 40.0326 25.7899C40.4219 25.7899 40.7821 25.5679 40.7821 24.991V23.1956H41.5177V23.1943ZM44.1361 24.0307C43.7078 23.8229 43.452 23.7428 43.2017 23.7428C42.9374 23.7428 42.7678 23.8461 42.7678 24.0074C42.7678 24.494 44.2696 24.3572 44.2696 25.4814C44.2696 26.0997 43.7926 26.4598 43.1363 26.4598C42.6218 26.4598 42.3659 26.314 42.0711 26.1475V25.453C42.4952 25.7602 42.7553 25.8687 43.0807 25.8687C43.3616 25.8687 43.5131 25.7602 43.5131 25.5705C43.5131 25.0413 42.0113 25.2349 42.0113 24.0771C42.0113 23.5195 42.4521 23.1504 43.1363 23.1504C43.4645 23.1504 43.7634 23.2265 44.1361 23.4008V24.0307V24.0307ZM45.4919 24.09H45.3181V23.3388H45.6212C45.8298 23.3388 45.9522 23.3943 45.9522 23.566C45.9522 23.7041 45.8659 23.7544 45.7575 23.7609L45.9633 24.0887H45.7589L45.5725 23.7738H45.4919V24.09V24.09ZM45.6435 23.6473C45.7213 23.6473 45.7672 23.6331 45.7672 23.5492C45.7672 23.4718 45.6782 23.4666 45.6129 23.4666H45.4919V23.6473H45.6435ZM45.617 24.4127C45.2179 24.4127 44.862 24.1559 44.862 23.7157C44.862 23.2743 45.2179 23.0187 45.617 23.0187C46.0147 23.0187 46.3707 23.2743 46.3707 23.7157C46.3738 23.8083 46.3564 23.9004 46.3196 23.9864C46.2828 24.0725 46.2274 24.1506 46.1567 24.2159C46.086 24.2813 46.0017 24.3324 45.9089 24.3663C45.816 24.4001 45.7167 24.4159 45.617 24.4127V24.4127ZM45.617 23.1801C45.3181 23.1801 45.0789 23.3943 45.0789 23.7157C45.0789 24.0371 45.3181 24.2527 45.617 24.2514V24.2527C45.9063 24.2527 46.1538 24.0371 46.1538 23.7157C46.1538 23.3943 45.9063 23.1801 45.617 23.1801Z" fill="white"/>
<defs>
<linearGradient id="paint0_linear_605_1065" x1="7.79173" y1="14.0004" x2="36.6408" y2="8.14353" gradientUnits="userSpaceOnUse">
<stop stop-color="#C95A2D"/>
<stop offset="0.15" stop-color="#C95A2D"/>
<stop offset="0.182" stop-color="#CB602E"/>
<stop offset="0.229" stop-color="#CF6F2F"/>
<stop offset="0.286" stop-color="#D68630"/>
<stop offset="0.35" stop-color="#E2A732"/>
<stop offset="0.42" stop-color="#F6D330"/>
<stop offset="0.44" stop-color="#F6D330"/>
<stop offset="0.494" stop-color="#EDC132"/>
<stop offset="0.608" stop-color="#DB9531"/>
<stop offset="0.75" stop-color="#C95A2D"/>
<stop offset="0.978" stop-color="#C95A2D"/>
<stop offset="1" stop-color="#C95A2D"/>
</linearGradient>
<linearGradient id="paint1_linear_605_1065" x1="7.79198" y1="14.0017" x2="36.6411" y2="8.14478" gradientUnits="userSpaceOnUse">
<stop stop-color="#C95A2D"/>
<stop offset="0.15" stop-color="#C95A2D"/>
<stop offset="0.182" stop-color="#CB602E"/>
<stop offset="0.229" stop-color="#CF6F2F"/>
<stop offset="0.286" stop-color="#D68630"/>
<stop offset="0.35" stop-color="#E2A732"/>
<stop offset="0.42" stop-color="#F6D330"/>
<stop offset="0.44" stop-color="#F6D330"/>
<stop offset="0.494" stop-color="#EDC132"/>
<stop offset="0.608" stop-color="#DB9531"/>
<stop offset="0.75" stop-color="#C95A2D"/>
<stop offset="0.978" stop-color="#C95A2D"/>
<stop offset="1" stop-color="#C95A2D"/>
</linearGradient>
<linearGradient id="paint2_linear_605_1065" x1="8.79158" y1="15.1315" x2="37.6404" y2="9.26988" gradientUnits="userSpaceOnUse">
<stop stop-color="#C95A2D"/>
<stop offset="0.15" stop-color="#C95A2D"/>
<stop offset="0.182" stop-color="#CB602E"/>
<stop offset="0.229" stop-color="#CF6F2F"/>
<stop offset="0.286" stop-color="#D68630"/>
<stop offset="0.35" stop-color="#E2A732"/>
<stop offset="0.42" stop-color="#F6D330"/>
<stop offset="0.44" stop-color="#F6D330"/>
<stop offset="0.494" stop-color="#EDC132"/>
<stop offset="0.608" stop-color="#DB9531"/>
<stop offset="0.75" stop-color="#C95A2D"/>
<stop offset="0.978" stop-color="#C95A2D"/>
<stop offset="1" stop-color="#C95A2D"/>
</linearGradient>
<linearGradient id="paint3_linear_605_1065" x1="8.79154" y1="15.1306" x2="37.6403" y2="9.26896" gradientUnits="userSpaceOnUse">
<stop stop-color="#C95A2D"/>
<stop offset="0.15" stop-color="#C95A2D"/>
<stop offset="0.182" stop-color="#CB602E"/>
<stop offset="0.229" stop-color="#CF6F2F"/>
<stop offset="0.286" stop-color="#D68630"/>
<stop offset="0.35" stop-color="#E2A732"/>
<stop offset="0.42" stop-color="#F6D330"/>
<stop offset="0.44" stop-color="#F6D330"/>
<stop offset="0.494" stop-color="#EDC132"/>
<stop offset="0.608" stop-color="#DB9531"/>
<stop offset="0.75" stop-color="#C95A2D"/>
<stop offset="0.978" stop-color="#C95A2D"/>
<stop offset="1" stop-color="#C95A2D"/>
</linearGradient>
<linearGradient id="paint4_linear_605_1065" x1="7.90472" y1="13.9924" x2="36.7538" y2="8.13547" gradientUnits="userSpaceOnUse">
<stop stop-color="#C95A2D"/>
<stop offset="0.15" stop-color="#C95A2D"/>
<stop offset="0.182" stop-color="#CB602E"/>
<stop offset="0.229" stop-color="#CF6F2F"/>
<stop offset="0.286" stop-color="#D68630"/>
<stop offset="0.35" stop-color="#E2A732"/>
<stop offset="0.42" stop-color="#F6D330"/>
<stop offset="0.44" stop-color="#F6D330"/>
<stop offset="0.494" stop-color="#EDC132"/>
<stop offset="0.608" stop-color="#DB9531"/>
<stop offset="0.75" stop-color="#C95A2D"/>
<stop offset="0.978" stop-color="#C95A2D"/>
<stop offset="1" stop-color="#C95A2D"/>
</linearGradient>
<linearGradient id="paint5_linear_605_1065" x1="7.64946" y1="14.0354" x2="36.4986" y2="8.17847" gradientUnits="userSpaceOnUse">
<stop stop-color="#C95A2D"/>
<stop offset="0.15" stop-color="#C95A2D"/>
<stop offset="0.182" stop-color="#CB602E"/>
<stop offset="0.229" stop-color="#CF6F2F"/>
<stop offset="0.286" stop-color="#D68630"/>
<stop offset="0.35" stop-color="#E2A732"/>
<stop offset="0.42" stop-color="#F6D330"/>
<stop offset="0.44" stop-color="#F6D330"/>
<stop offset="0.494" stop-color="#EDC132"/>
<stop offset="0.608" stop-color="#DB9531"/>
<stop offset="0.75" stop-color="#C95A2D"/>
<stop offset="0.978" stop-color="#C95A2D"/>
<stop offset="1" stop-color="#C95A2D"/>
</linearGradient>
<linearGradient id="paint6_linear_605_1065" x1="7.26217" y1="14.1009" x2="36.1112" y2="8.24398" gradientUnits="userSpaceOnUse">
<stop stop-color="#C95A2D"/>
<stop offset="0.15" stop-color="#C95A2D"/>
<stop offset="0.182" stop-color="#CB602E"/>
<stop offset="0.229" stop-color="#CF6F2F"/>
<stop offset="0.286" stop-color="#D68630"/>
<stop offset="0.35" stop-color="#E2A732"/>
<stop offset="0.42" stop-color="#F6D330"/>
<stop offset="0.44" stop-color="#F6D330"/>
<stop offset="0.494" stop-color="#EDC132"/>
<stop offset="0.608" stop-color="#DB9531"/>
<stop offset="0.75" stop-color="#C95A2D"/>
<stop offset="0.978" stop-color="#C95A2D"/>
<stop offset="1" stop-color="#C95A2D"/>
</linearGradient>
<linearGradient id="paint7_linear_605_1065" x1="8.60587" y1="15.1873" x2="37.7445" y2="9.26062" gradientUnits="userSpaceOnUse">
<stop stop-color="#C95A2D"/>
<stop offset="0.15" stop-color="#C95A2D"/>
<stop offset="0.182" stop-color="#CB602E"/>
<stop offset="0.229" stop-color="#CF6F2F"/>
<stop offset="0.286" stop-color="#D68630"/>
<stop offset="0.35" stop-color="#E2A732"/>
<stop offset="0.42" stop-color="#F6D330"/>
<stop offset="0.44" stop-color="#F6D330"/>
<stop offset="0.494" stop-color="#EDC132"/>
<stop offset="0.608" stop-color="#DB9531"/>
<stop offset="0.75" stop-color="#C95A2D"/>
<stop offset="0.978" stop-color="#C95A2D"/>
<stop offset="1" stop-color="#C95A2D"/>
</linearGradient>
</defs>
</svg>
